<?xml version="1.0" encoding="UTF-8" standalone="no"?>
<svg width="43px" height="61px" viewBox="0 0 43 61" version="1.1" xmlns="http://www.w3.org/2000/svg" xmlns:xlink="http://www.w3.org/1999/xlink">
    <!-- Generator: Sketch 39.1 (31720) - http://www.bohemiancoding.com/sketch -->
    <title>Page 1</title>
    <desc>Created with Sketch.</desc>
    <defs></defs>
    <g id="ReHome---Promotion" stroke="none" stroke-width="1" fill="none" fill-rule="evenodd">
        <g id="ReHome---Promotion-[ผ่อนต่อเดือนถูกลง-จำนวนปีเท่าเดิม]" transform="translate(-356.000000, -764.000000)">
            <g id="Group-17" transform="translate(148.000000, 478.000000)">
                <g id="Group-5" transform="translate(111.000000, 286.000000)">
                    <g id="Page-1" transform="translate(97.000000, 0.000000)">
                        <polygon id="Fill-1" fill="#939598" points="0 54.489529 9.48671212 50.8301849 13.1273788 60.3783247 26.4417424 30.2718731 13.3130606 24.386357"></polygon>
                        <polygon id="Fill-2" fill="#D1D3D4" points="21.9601 38.3493226 13.1841909 58.1933441 9.96440303 49.7484516 1.57744848 52.9866989 10.351403 33.145957 11.1364788 33.4975269 3.20623636 51.4289032 10.4595545 48.6288065 13.2408727 55.9304409 21.1724182 37.9964409"></polygon>
                        <polygon id="Fill-3" fill="#939598" points="16.5389727 30.2721355 29.8513818 60.3746516 33.4985636 50.8284796 42.9820182 54.4937269 29.6683061 24.3866194"></polygon>
                        <polygon id="Fill-4" fill="#D1D3D4" points="32.6315273 33.1447763 41.4074364 52.9887978 33.0191788 49.747271 29.7974364 58.1888839 21.0228303 38.3481419 21.8079061 37.996572 29.737497 55.9279484 32.5240273 48.6276258 39.7753909 51.432314 31.8438455 33.4976581"></polygon>
                        <g id="Group-153" transform="translate(0.000000, 0.034501)">
                            <path d="M1.30335606,20.5878935 C1.71185606,21.5619258 1.71185606,22.6605817 1.30335606,23.6339581 C1.15415909,23.9901194 1.01212879,24.3495602 0.877265152,24.7129366 C0.800386364,24.9215172 0.725462121,25.1307538 0.653795455,25.3413022 C0.137143939,26.8505602 0.515022727,28.5415065 1.68905303,29.6145817 C2.01155303,29.9090871 2.33926515,30.1852269 2.67153788,30.443657 C3.60255303,31.1664742 4.10747727,32.3012054 4.12050758,33.4851301 C4.12181061,33.6425495 4.1257197,33.8006247 4.13093182,33.9580441 C4.19608333,35.8451086 5.57143182,37.427829 7.42303788,37.7282376 C7.48753788,37.7387323 7.55203788,37.7492269 7.61588636,37.7584097 C8.87461364,37.9486247 9.96134091,38.7508075 10.5340227,39.8953774 C10.5418409,39.9104634 10.5496591,39.9262054 10.5574773,39.9412914 C11.3972803,41.6086247 13.29775,42.4403237 15.0881136,41.9437968 C15.1604318,41.9234634 15.2320985,41.9031301 15.3037652,41.8827968 C16.5201439,41.530571 17.83425,41.8053989 18.8147803,42.6108613 C18.864947,42.6521839 18.9157652,42.6935065 18.9659318,42.7341731 C20.3894924,43.8800548 22.4078864,43.8905495 23.8431742,42.7597538 C23.8952955,42.7184312 23.9467652,42.6771086 23.9982348,42.635786 C24.9872348,41.8401624 26.3032955,41.5791086 27.5164167,41.9437968 C27.5880833,41.9654419 27.6604015,41.9870871 27.7333712,42.0080763 C29.5172197,42.5229688 31.4242045,41.7129151 32.28225,40.0560763 C32.2907197,40.0403344 32.2985379,40.0245925 32.3070076,40.0088505 C32.8920682,38.8714957 33.9879167,38.0824312 35.2485985,37.9079581 C35.3117955,37.8987753 35.3749924,37.8895925 35.4381894,37.8804097 C37.2943561,37.6029581 38.690553,36.0346677 38.7759015,34.1469473 C38.7817652,34.0072376 38.7869773,33.8681839 38.7902348,33.7284742 C38.819553,32.5222484 39.3492348,31.3757108 40.3069621,30.6502699 C40.6268561,30.4082376 40.9428409,30.1491516 41.2542652,29.8736677 C42.4458864,28.8189581 42.8459167,27.1286677 42.3416439,25.6128505 C42.1227348,24.953657 41.8784167,24.3049581 41.6112955,23.6693774 C41.1930227,22.6743559 41.1930227,21.5474957 41.6112955,20.5524742 C41.8784167,19.9168935 42.1227348,19.2681946 42.3416439,18.6090011 C42.8459167,17.0931839 42.4458864,15.4035495 41.2542652,14.3481839 C40.9428409,14.0727 40.6268561,13.8142699 40.3069621,13.5715817 C39.3492348,12.8461409 38.819553,11.6996032 38.7902348,10.4933774 C38.7869773,10.3543237 38.7817652,10.214614 38.7759015,10.0749043 C38.690553,8.18783978 37.2943561,6.61954946 35.4381894,6.34144194 C35.3749924,6.33225914 35.3117955,6.32307634 35.2485985,6.31454946 C33.9879167,6.13942043 32.8920682,5.35035591 32.3070076,4.21300108 C32.2985379,4.19725914 32.2907197,4.1815172 32.28225,4.16577527 C31.4242045,2.50959247 29.5172197,1.69953871 27.7333712,2.21443118 C27.6604015,2.23476452 27.5880833,2.25640968 27.5164167,2.27805484 C26.3032955,2.64274301 24.9872348,2.38168925 23.9982348,1.58606559 C23.9467652,1.54474301 23.8952955,1.50342043 23.8431742,1.46275376 C22.4078864,0.331958065 20.3894924,0.341796774 18.9659318,1.48767849 C18.9157652,1.52900108 18.864947,1.56966774 18.8147803,1.61099032 C17.83425,2.41645269 16.5201439,2.69193656 15.3037652,2.33971075 C15.2320985,2.31872151 15.1604318,2.29838817 15.0881136,2.27871075 C13.29775,1.78152796 11.3972803,2.61322688 10.5574773,4.28056022 C10.5496591,4.29564624 10.5418409,4.31138817 10.5340227,4.32647419 C9.96134091,5.47104409 8.87461364,6.27322688 7.61588636,6.46344194 C7.55203788,6.47328065 7.48753788,6.48311935 7.42303788,6.49361398 C5.57143182,6.79402258 4.19608333,8.37674301 4.13093182,10.2638075 C4.1257197,10.4218828 4.12181061,10.5793022 4.12050758,10.7367215 C4.10747727,11.9213022 3.60255303,13.0553774 2.67153788,13.7788505 C2.33926515,14.0366247 2.01155303,14.3127645 1.68905303,14.6072699 C0.515022727,15.6803452 0.137143939,17.3712914 0.653795455,18.8805495 C0.725462121,19.0910978 0.800386364,19.3003344 0.877265152,19.5089151 C1.01212879,19.8722914 1.15415909,20.2317323 1.30335606,20.5878935" id="Fill-5" fill="#D1D3D4"></path>
                            <path d="M24.3958545,8.27323978 C24.8923091,7.92298172 25.1867939,7.39103548 25.252597,6.8289172 C24.7059758,6.69904624 24.1078848,6.79546559 23.6114303,7.14572366 C23.1149758,7.49532581 22.8204909,8.02792796 22.7546879,8.59004624 C23.3019606,8.7199172 23.8994,8.62349785 24.3958545,8.27323978" id="Fill-7" fill="#939598"></path>
                            <path d="M23.8191985,5.95950323 C24.1671076,6.45930968 24.6954864,6.7557828 25.2538348,6.82203011 C25.3828348,6.27171828 25.2870621,5.66958925 24.939153,5.1697828 C24.5918955,4.66997634 24.0628652,4.37350323 23.5045167,4.30725591 C23.3755167,4.85822366 23.4712894,5.45969677 23.8191985,5.95950323" id="Fill-9" fill="#939598"></path>
                            <path d="M18.0429955,39.0522 C17.6950864,38.5523935 17.5993136,37.9509204 17.7283136,37.3999527 C18.2866621,37.4662 18.8156924,37.7626731 19.16295,38.2624796 C19.5108591,38.762286 19.6066318,39.3637591 19.4776318,39.9147269 C18.9192833,39.8484796 18.3909045,39.5520065 18.0429955,39.0522" id="Fill-11" fill="#939598"></path>
                            <path d="M19.3709788,37.0765215 C18.8745242,37.4267796 18.2770848,37.5231989 17.7298121,37.393328 C17.7956152,36.8312097 18.0901,36.2986075 18.5865545,35.9490054 C19.0830091,35.5987473 19.6811,35.502328 20.2277212,35.6321989 C20.1619182,36.1943172 19.8674333,36.7262634 19.3709788,37.0765215" id="Fill-13" fill="#939598"></path>
                            <path d="M26.7303636,8.98595591 C27.2795909,8.72818172 27.6613788,8.25526774 27.8236061,7.7134828 C27.3069545,7.48981613 26.701697,7.47997742 26.1524697,7.73840753 C25.6025909,7.99618172 25.2214545,8.4690957 25.0592273,9.01088065 C25.5758788,9.23454731 26.1804848,9.24373011 26.7303636,8.98595591" id="Fill-15" fill="#939598"></path>
                            <path d="M26.5614909,6.60656237 C26.8175364,7.15949785 27.2872788,7.54386344 27.8254303,7.70718602 C28.047597,7.18704624 28.0573697,6.57770215 27.8006727,6.02476667 C27.5446273,5.47117527 27.0748848,5.08746559 26.5367333,4.92414301 C26.3145667,5.4442828 26.3054455,6.05362688 26.5614909,6.60656237" id="Fill-17" fill="#939598"></path>
                            <path d="M15.1814758,38.1972817 C14.9254303,37.6443462 14.9345515,37.0350022 15.1567182,36.5148624 C15.6948697,36.6781849 16.1646121,37.0625505 16.4206576,37.615486 C16.6773545,38.1684215 16.6675818,38.7777656 16.4454152,39.2979054 C15.9072636,39.1345828 15.4375212,38.7508731 15.1814758,38.1972817" id="Fill-19" fill="#939598"></path>
                            <path d="M16.8300045,36.483772 C16.2807773,36.7415462 15.6755197,36.7323634 15.1588682,36.5086968 C15.3210955,35.9669118 15.7022318,35.4939978 16.2521106,35.2362237 C16.8013379,34.9777935 17.4065955,34.9876323 17.923247,35.2112989 C17.7610197,35.7530839 17.3792318,36.2259978 16.8300045,36.483772" id="Fill-21" fill="#939598"></path>
                            <path d="M28.9072712,10.0991075 C29.4929833,9.94103226 29.950347,9.54223656 30.2031348,9.03652688 C29.7333924,8.72627957 29.1392106,8.61149462 28.5534985,8.76956989 C27.9677864,8.92698925 27.5104227,9.32644086 27.2576348,9.83149462 C27.7273773,10.1417419 28.3215591,10.2571828 28.9072712,10.0991075" id="Fill-23" fill="#939598"></path>
                            <path d="M29.1513939,7.72633871 C29.3084091,8.31600538 29.7045303,8.77645699 30.2068485,9.03095161 C30.5150152,8.55803763 30.6290303,7.95984409 30.4720152,7.37017742 C30.3156515,6.78051075 29.9188788,6.32005914 29.4172121,6.06556452 C29.1090455,6.53847849 28.9943788,7.13667204 29.1513939,7.72633871" id="Fill-25" fill="#939598"></path>
                            <path d="M12.5100682,36.8520022 C12.353053,36.2623355 12.4677197,35.6641419 12.7758864,35.191228 C13.277553,35.4457226 13.6743258,35.9061742 13.8306894,36.4958409 C13.9877045,37.0855075 13.8736894,37.6837011 13.5655227,38.1566151 C13.0632045,37.9021204 12.6670833,37.4416688 12.5100682,36.8520022" id="Fill-27" fill="#939598"></path>
                            <path d="M14.4291061,35.4527409 C13.8433939,35.6108161 13.2492121,35.4953753 12.7794697,35.185128 C13.0322576,34.6800742 13.4896212,34.2806226 14.0753333,34.1232032 C14.6610455,33.965128 15.2552273,34.0799129 15.7249697,34.3901602 C15.4721818,34.8958699 15.0148182,35.2946656 14.4291061,35.4527409" id="Fill-29" fill="#939598"></path>
                            <path d="M30.8604485,11.5788495 C31.464403,11.5257204 31.9836606,11.2128495 32.3198424,10.758957 C31.9106909,10.3713118 31.3451758,10.1542043 30.7412212,10.2073333 C30.1372667,10.2604624 29.6180091,10.5733333 29.2818273,11.0265699 C29.6909788,11.414871 30.2564939,11.6319785 30.8604485,11.5788495" id="Fill-31" fill="#939598"></path>
                            <path d="M31.5101394,9.28479032 C31.5629121,9.89282258 31.8736848,10.415586 32.3245333,10.7540376 C32.7095788,10.3421237 32.9252303,9.77279032 32.8724576,9.16475806 C32.8196848,8.55672581 32.5089121,8.03396237 32.0587152,7.69551075 C31.6730182,8.10742473 31.4573667,8.67675806 31.5101394,9.28479032" id="Fill-33" fill="#939598"></path>
                            <path d="M10.1100167,35.0571591 C10.0572439,34.4491269 10.2728955,33.8797935 10.6585924,33.4678796 C11.1087894,33.8063312 11.4195621,34.3290946 11.4723348,34.9371269 C11.5251076,35.5451591 11.3094561,36.1144925 10.9237591,36.5264065 C10.4735621,36.1879548 10.1627894,35.6651914 10.1100167,35.0571591" id="Fill-35" fill="#939598"></path>
                            <path d="M12.2411879,34.0146495 C11.6372333,34.0677785 11.0717182,33.850671 10.6625667,33.4630258 C10.9987485,33.0091333 11.5180061,32.6962624 12.1219606,32.6431333 C12.7259152,32.5900043 13.2914303,32.8071118 13.7005818,33.1954129 C13.3644,33.6486495 12.8451424,33.9615204 12.2411879,34.0146495" id="Fill-37" fill="#939598"></path>
                            <path d="M32.5306076,13.3802516 C33.1345621,13.4333806 33.7000773,13.2162731 34.1092288,12.827972 C33.773047,12.3747355 33.2537894,12.0618645 32.6498348,12.0087355 C32.0458803,11.9556065 31.4803652,12.172714 31.0712136,12.5610151 C31.4073955,13.0142516 31.926653,13.3271226 32.5306076,13.3802516" id="Fill-39" fill="#939598"></path>
                            <path d="M33.5661258,11.2346914 C33.513353,11.8427237 33.7290045,12.412057 34.1147015,12.823971 C34.5648985,12.4855194 34.8756712,11.9627559 34.9284439,11.3547237 C34.9812167,10.7466914 34.7655652,10.1773581 34.3798682,9.76544409 C33.9296712,10.1038957 33.6188985,10.6266591 33.5661258,11.2346914" id="Fill-41" fill="#939598"></path>
                            <path d="M8.0540303,32.8673247 C8.10680303,32.2592925 8.41757576,31.736529 8.86777273,31.3980774 C9.2534697,31.8099914 9.46912121,32.3793247 9.41634848,32.987357 C9.36357576,33.5953892 9.05280303,34.1181527 8.60195455,34.4566043 C8.21690909,34.0446903 8.00125758,33.475357 8.0540303,32.8673247" id="Fill-43" fill="#939598"></path>
                            <path d="M10.3326394,32.2132473 C9.72868485,32.1601183 9.20942727,31.8472473 8.87324545,31.3933548 C9.28239697,31.0057097 9.84791212,30.7886022 10.4518667,30.8417312 C11.0558212,30.8948602 11.5750788,31.2077312 11.9112606,31.6609677 C11.5021091,32.0492688 10.9365939,32.2663763 10.3326394,32.2132473" id="Fill-45" fill="#939598"></path>
                            <path d="M33.8669303,15.4486763 C34.4526424,15.6067516 35.0468242,15.4913108 35.5165667,15.1810634 C35.2637788,14.6760097 34.8064152,14.2765581 34.220703,14.1191387 C33.6349909,13.9610634 33.0408091,14.0758484 32.5710667,14.3867516 C32.8238545,14.8918054 33.2812182,15.2906011 33.8669303,15.4486763" id="Fill-47" fill="#939598"></path>
                            <path d="M35.2568727,13.5166817 C35.0998576,14.1063484 35.2145242,14.7045419 35.5226909,15.1774559 C36.0243576,14.9229613 36.4211303,14.4625097 36.5774939,13.872843 C36.7345091,13.2831763 36.6204939,12.6849828 36.3123273,12.2120688 C35.8100091,12.4665634 35.4138879,12.9270151 35.2568727,13.5166817" id="Fill-49" fill="#939598"></path>
                            <path d="M6.4047197,30.3490086 C6.56173485,29.7593419 6.95785606,29.2988903 7.45952273,29.0443957 C7.76834091,29.5173097 7.88235606,30.1155032 7.72534091,30.7051699 C7.56897727,31.2948366 7.17220455,31.7552882 6.67053788,32.0097828 C6.36237121,31.5368688 6.24770455,30.9386753 6.4047197,30.3490086" id="Fill-51" fill="#939598"></path>
                            <path d="M8.76157576,30.103172 C8.17586364,29.9450968 7.7185,29.5463011 7.46571212,29.0412473 C7.93545455,28.7303441 8.52963636,28.6155591 9.11534848,28.7736344 C9.70106061,28.9310538 10.1584242,29.3305054 10.4112121,29.8355591 C9.9414697,30.1458065 9.34728788,30.2612473 8.76157576,30.103172" id="Fill-53" fill="#939598"></path>
                            <path d="M34.8288924,17.7210903 C35.3787712,17.9788645 35.9833773,17.9696817 36.5000288,17.7460151 C36.3378015,17.2042301 35.9560136,16.7313161 35.4067864,16.4735419 C34.8575591,16.2151118 34.2523015,16.2249505 33.73565,16.4486172 C33.8978773,16.9904022 34.2796652,17.4633161 34.8288924,17.7210903" id="Fill-55" fill="#939598"></path>
                            <path d="M36.5309106,16.0614312 C36.2748652,16.6143667 36.2839864,17.2237108 36.506153,17.7438505 C37.0443045,17.580528 37.514047,17.1968183 37.7700924,16.6432269 C38.0267894,16.0902914 38.0170167,15.4809473 37.79485,14.9608075 C37.2566985,15.1241301 36.7869561,15.5084957 36.5309106,16.0614312" id="Fill-57" fill="#939598"></path>
                            <path d="M5.21212121,27.5787559 C5.46816667,27.0251645 5.93790909,26.6414548 6.47606061,26.4781323 C6.69822727,26.998272 6.708,27.6076161 6.45130303,28.1605516 C6.19525758,28.7134871 5.72551515,29.0978527 5.18736364,29.2611753 C4.96519697,28.7410355 4.95607576,28.1316914 5.21212121,27.5787559" id="Fill-59" fill="#939598"></path>
                            <path d="M7.57562273,27.7487032 C7.02574394,27.490929 6.64460758,27.0180151 6.4823803,26.4762301 C6.99903182,26.2525634 7.60428939,26.2427247 8.15351667,26.5011548 C8.70274394,26.758929 9.08453182,27.231843 9.24675909,27.773628 C8.73010758,27.9972946 8.12485,28.0064774 7.57562273,27.7487032" id="Fill-61" fill="#939598"></path>
                            <path d="M35.3872409,20.128557 C35.8836955,20.4788151 36.4811348,20.5752344 37.0284076,20.4453634 C36.9626045,19.8832452 36.6681197,19.350643 36.1716652,19.0010409 C35.6752106,18.6507828 35.0777712,18.5543634 34.5304985,18.6842344 C34.5963015,19.2463527 34.8907864,19.7782989 35.3872409,20.128557" id="Fill-63" fill="#939598"></path>
                            <path d="M37.3496045,18.7916075 C37.0016955,19.291414 36.9059227,19.8928871 37.0349227,20.4438548 C37.5932712,20.3776075 38.1223015,20.0811344 38.4695591,19.581328 C38.8174682,19.0815215 38.9132409,18.4793925 38.7842409,17.9290806 C38.2258924,17.995328 37.6975136,18.2918011 37.3496045,18.7916075" id="Fill-65" fill="#939598"></path>
                            <path d="M4.51258939,24.6407204 C4.86049848,24.140914 5.38887727,23.8444409 5.94722576,23.7781935 C6.07622576,24.3285054 5.98045303,24.9306344 5.63254394,25.4304409 C5.28528636,25.9302473 4.75625606,26.2267204 4.19790758,26.2929677 C4.06890758,25.742 4.1646803,25.1405269 4.51258939,24.6407204" id="Fill-67" fill="#939598"></path>
                            <path d="M6.81080909,25.2212699 C6.31435455,24.8710118 6.0198697,24.3390656 5.95406667,23.7769473 C6.50068788,23.6470763 7.09877879,23.7434957 7.59523333,24.0937538 C8.09168788,24.4433559 8.38617273,24.9759581 8.45197576,25.5380763 C7.90470303,25.6679473 7.30726364,25.571528 6.81080909,25.2212699" id="Fill-69" fill="#939598"></path>
                            <path d="M35.5249061,22.5977452 C35.953603,23.0293366 36.5256333,23.2287344 37.0865879,23.1965946 C37.1185121,22.6318527 36.9204515,22.0559602 36.4917545,21.6243688 C36.0630576,21.1927774 35.4910273,20.9933796 34.9300727,21.0255194 C34.8981485,21.5902613 35.0962091,22.1661538 35.5249061,22.5977452" id="Fill-71" fill="#939598"></path>
                            <path d="M37.6880667,21.6242376 C37.2593697,22.055829 37.0613091,22.6317215 37.0932333,23.1964634 C37.6548394,23.2286032 38.2262182,23.0292054 38.6549152,22.597614 C39.0836121,22.1660226 39.2816727,21.5901301 39.2497485,21.0253882 C38.6887939,20.9932484 38.1167636,21.1926462 37.6880667,21.6242376" id="Fill-73" fill="#939598"></path>
                            <path d="M4.32736364,21.6242376 C4.75606061,21.1926462 5.32809091,20.9932484 5.88904545,21.0253882 C5.9209697,21.5901301 5.72290909,22.1660226 5.29421212,22.597614 C4.86551515,23.0292054 4.29348485,23.2286032 3.7325303,23.1964634 C3.70060606,22.6317215 3.89866667,22.055829 4.32736364,21.6242376" id="Fill-75" fill="#939598"></path>
                            <path d="M6.49052424,22.5977452 C6.06182727,22.1661538 5.86376667,21.5902613 5.89569091,21.0255194 C6.45664545,20.9933796 7.02867576,21.1927774 7.45737273,21.6243688 C7.8860697,22.0559602 8.0841303,22.6318527 8.05220606,23.1965946 C7.49125152,23.2287344 6.91922121,23.0293366 6.49052424,22.5977452" id="Fill-77" fill="#939598"></path>
                            <path d="M35.2361545,25.0352527 C35.5840636,25.5350591 36.1124424,25.8315323 36.6707909,25.8977796 C36.7997909,25.3474677 36.7040182,24.7453387 36.3561091,24.2455323 C36.0088515,23.7457258 35.4798212,23.4492527 34.9214727,23.3830054 C34.7924727,23.9339731 34.8882455,24.5354462 35.2361545,25.0352527" id="Fill-79" fill="#939598"></path>
                            <path d="M37.5343742,24.4547032 C37.0379197,24.8049613 36.7434348,25.3369075 36.6776318,25.8990258 C37.224253,26.0288968 37.8223439,25.9324774 38.3187985,25.5822194 C38.815253,25.2326172 39.1097379,24.7000151 39.1755409,24.1378968 C38.6282682,24.0080258 38.0308288,24.1044452 37.5343742,24.4547032" id="Fill-81" fill="#939598"></path>
                            <path d="M4.66367576,18.6395011 C5.1601303,18.289243 5.7575697,18.1928237 6.30484242,18.3226946 C6.23903939,18.8848129 5.94455455,19.4174151 5.4481,19.7670172 C4.95164545,20.1172753 4.35355455,20.2136946 3.80693333,20.0838237 C3.87273636,19.5217054 4.16722121,18.9897591 4.66367576,18.6395011" id="Fill-83" fill="#939598"></path>
                            <path d="M6.62610455,19.9763849 C6.27819545,19.4765785 6.18242273,18.8751054 6.31142273,18.3241376 C6.86977121,18.3903849 7.39880152,18.6868581 7.74605909,19.1866645 C8.09396818,19.686471 8.18974091,20.2886 8.06074091,20.8389118 C7.50239242,20.7726645 6.97401364,20.4761914 6.62610455,19.9763849" id="Fill-85" fill="#939598"></path>
                            <path d="M34.5282833,27.3855237 C34.7843288,27.9384591 35.2540712,28.3228247 35.7922227,28.4861473 C36.0143894,27.9660075 36.0241621,27.3566634 35.7674652,26.803728 C35.5114197,26.2501366 35.0416773,25.8664269 34.5035258,25.7031043 C34.2813591,26.2232441 34.2722379,26.8325882 34.5282833,27.3855237" id="Fill-87" fill="#939598"></path>
                            <path d="M36.8916545,27.2155108 C36.3424273,27.4732849 35.9606394,27.9461989 35.7984121,28.4879839 C36.3150636,28.7116505 36.9203212,28.7214892 37.4695485,28.4630591 C38.0194273,28.2052849 38.4005636,27.732371 38.5627909,27.190586 C38.0461394,26.9669194 37.4408818,26.9577366 36.8916545,27.2155108" id="Fill-89" fill="#939598"></path>
                            <path d="M5.51279545,15.7586613 C6.06202273,15.5008871 6.6672803,15.5100699 7.18393182,15.7337366 C7.02170455,16.2755215 6.64056818,16.7484355 6.09068939,17.0062097 C5.54146212,17.2646398 4.93620455,17.2548011 4.41955303,17.0311344 C4.5817803,16.4893495 4.96356818,16.0164355 5.51279545,15.7586613" id="Fill-91" fill="#939598"></path>
                            <path d="M7.21481364,17.4183204 C6.95876818,16.8653849 6.96788939,16.2560409 7.19005606,15.7359011 C7.72820758,15.8992237 8.19795,16.2829333 8.45399545,16.8365247 C8.71069242,17.3894602 8.7009197,17.9988043 8.47875303,18.5189441 C7.94060152,18.3556215 7.47085909,17.9712559 7.21481364,17.4183204" id="Fill-93" fill="#939598"></path>
                            <path d="M33.422597,29.5770634 C33.5796121,30.1667301 33.9757333,30.6271817 34.4774,30.8816763 C34.7862182,30.4087624 34.9002333,29.8105688 34.7432182,29.2209022 C34.5868545,28.6312355 34.1900818,28.1707839 33.6884152,27.9162892 C33.3802485,28.3892032 33.2655818,28.9873968 33.422597,29.5770634" id="Fill-95" fill="#939598"></path>
                            <path d="M35.779453,29.8229 C35.1937409,29.9809753 34.7363773,30.379771 34.4835894,30.8848247 C34.9533318,31.195728 35.5475136,31.3105129 36.1332258,31.1524376 C36.7189379,30.9950183 37.1763015,30.5955667 37.4290894,30.0905129 C36.959347,29.7802656 36.3651652,29.6648247 35.779453,29.8229" id="Fill-97" fill="#939598"></path>
                            <path d="M6.84911818,13.0692172 C7.4348303,12.9111419 8.02901212,13.0265828 8.49875455,13.3368301 C8.24596667,13.8418839 7.78860303,14.2413355 7.20289091,14.3987548 C6.61717879,14.5568301 6.02299697,14.4420452 5.55325455,14.1317978 C5.80604242,13.6260882 6.26340606,13.2272925 6.84911818,13.0692172" id="Fill-99" fill="#939598"></path>
                            <path d="M8.2389303,15.0012118 C8.08191515,14.4115452 8.19658182,13.8133516 8.50474848,13.3404376 C9.00641515,13.5949323 9.40318788,14.0553839 9.55955152,14.6450505 C9.71656667,15.2347172 9.60255152,15.8329108 9.29373333,16.3058247 C8.79206667,16.0513301 8.39594545,15.5908785 8.2389303,15.0012118" id="Fill-101" fill="#939598"></path>
                            <path d="M31.9527136,31.5434935 C32.0054864,32.1515258 32.3162591,32.6742892 32.7671076,33.0127409 C33.152153,32.6008269 33.3678045,32.0314935 33.3150318,31.4234613 C33.2622591,30.815429 32.9514864,30.2926656 32.5012894,29.954214 C32.1155924,30.366128 31.8999409,30.9354613 31.9527136,31.5434935" id="Fill-103" fill="#939598"></path>
                            <path d="M34.2313879,32.197571 C33.6274333,32.2507 33.1081758,32.563571 32.7719939,33.0174634 C33.1811455,33.4051086 33.7466606,33.6222161 34.3506152,33.5690871 C34.9545697,33.5159581 35.4738273,33.2030871 35.8100091,32.7498505 C35.4008576,32.3615495 34.8353424,32.1444419 34.2313879,32.197571" id="Fill-105" fill="#939598"></path>
                            <path d="M8.63185909,10.6528957 C9.23581364,10.5997667 9.80132879,10.8168742 10.2104803,11.2051753 C9.87429848,11.6584118 9.35504091,11.9712828 8.75108636,12.0244118 C8.14713182,12.0775409 7.58161667,11.8604333 7.17246515,11.4721323 C7.50864697,11.0188957 8.02790455,10.7060247 8.63185909,10.6528957" id="Fill-107" fill="#939598"></path>
                            <path d="M9.66737727,12.7985215 C9.61460455,12.1904892 9.83025606,11.6211559 10.215953,11.2092419 C10.66615,11.5476935 10.9769227,12.070457 11.0296955,12.6784892 C11.0824682,13.2865215 10.8668167,13.8558548 10.4817712,14.2677688 C10.0309227,13.9293172 9.72015,13.4065538 9.66737727,12.7985215" id="Fill-109" fill="#939598"></path>
                            <path d="M30.1633273,33.224929 C30.1105545,33.8329613 30.3262061,34.4022946 30.711903,34.8142086 C31.1621,34.475757 31.4728727,33.9529935 31.5256455,33.3449613 C31.5784182,32.736929 31.3627667,32.1675957 30.9777212,31.7556817 C30.5268727,32.0941333 30.2161,32.6168968 30.1633273,33.224929" id="Fill-111" fill="#939598"></path>
                            <path d="M32.2946288,34.2673731 C31.6906742,34.2142441 31.1251591,34.4313516 30.7160076,34.8196527 C31.0521894,35.2728892 31.571447,35.5857602 32.1754015,35.6388892 C32.7793561,35.6920183 33.3448712,35.4749108 33.7540227,35.0872656 C33.4178409,34.6333731 32.8985833,34.3205022 32.2946288,34.2673731" id="Fill-113" fill="#939598"></path>
                            <path d="M10.8070727,8.58302796 C11.4110273,8.63615699 11.9302848,8.94902796 12.2664667,9.40292043 C11.8573152,9.79056559 11.2918,10.0076731 10.6878455,9.95454409 C10.0838909,9.90141505 9.56463333,9.58854409 9.22845152,9.13530753 C9.63760303,8.74700645 10.2031182,8.52989892 10.8070727,8.58302796" id="Fill-115" fill="#939598"></path>
                            <path d="M11.4567636,10.8770871 C11.5095364,10.2690548 11.8203091,9.7462914 12.2711576,9.40783978 C12.656203,9.81975376 12.8718545,10.3890871 12.8190818,10.9971194 C12.7663091,11.6051516 12.4555364,12.1279151 12.0053394,12.4663667 C11.6196424,12.0544527 11.4039909,11.4851194 11.4567636,10.8770871" id="Fill-117" fill="#939598"></path>
                            <path d="M28.1089045,34.5702742 C27.9518894,35.1599409 28.0665561,35.7581344 28.3747227,36.2310484 C28.8763894,35.9765538 29.2731621,35.5161022 29.4295258,34.9264355 C29.5865409,34.3367688 29.4725258,33.7385753 29.1637076,33.2656613 C28.6620409,33.5201559 28.2659197,33.9806075 28.1089045,34.5702742" id="Fill-119" fill="#939598"></path>
                            <path d="M30.0279424,35.9695355 C29.4422303,35.8114602 28.8480485,35.9269011 28.3783061,36.2371484 C28.6310939,36.7422022 29.0884576,37.1416538 29.6741697,37.2990731 C30.2598818,37.4571484 30.8540636,37.3423634 31.3238061,37.0314602 C31.0710182,36.5264065 30.6136545,36.1276108 30.0279424,35.9695355" id="Fill-121" fill="#939598"></path>
                            <path d="M13.3085,6.92258172 C13.8942121,7.08065699 14.3515758,7.47945269 14.6043636,7.98516237 C14.1346212,8.29540968 13.5404394,8.41019462 12.9547273,8.25211935 C12.3690152,8.0947 11.9116515,7.69524839 11.6588636,7.19019462 C12.1286061,6.87994731 12.7227879,6.76450645 13.3085,6.92258172" id="Fill-123" fill="#939598"></path>
                            <path d="M13.5526227,9.29535054 C13.7096379,8.70568387 14.1057591,8.24523226 14.6074258,7.99073763 C14.9162439,8.46365161 15.0302591,9.06184516 14.8732439,9.65151183 C14.7168803,10.2411785 14.3201076,10.7016301 13.8184409,10.9561247 C13.5102742,10.4832108 13.3956076,9.8850172 13.5526227,9.29535054" id="Fill-125" fill="#939598"></path>
                            <path d="M25.8517303,35.5387968 C25.5956848,36.0917323 25.6048061,36.7010763 25.8269727,37.2212161 C26.3651242,37.0578935 26.8348667,36.673528 27.0909121,36.1205925 C27.3476091,35.567657 27.3378364,34.9583129 27.1156697,34.4381731 C26.5775182,34.6014957 26.1077758,34.9858613 25.8517303,35.5387968" id="Fill-127" fill="#939598"></path>
                            <path d="M27.5002591,37.2522409 C26.9510318,36.9944667 26.3457742,37.0036495 25.8291227,37.2273161 C25.99135,37.7691011 26.3724864,38.2420151 26.9223652,38.4997892 C27.4715924,38.7582194 28.07685,38.7483806 28.5935015,38.524714 C28.4312742,37.982929 28.0494864,37.5100151 27.5002591,37.2522409" id="Fill-129" fill="#939598"></path>
                            <path d="M16.0601742,5.72199677 C16.6094015,5.97977097 16.9911894,6.45268495 17.1534167,6.99446989 C16.6367652,7.21813656 16.0315076,7.22797527 15.4822803,6.96954516 C14.9324015,6.71177097 14.5512652,6.23885699 14.3890379,5.69707204 C14.9056894,5.47340538 15.510947,5.46422258 16.0601742,5.72199677" id="Fill-131" fill="#939598"></path>
                            <path d="M15.8913667,8.10139032 C16.1474121,7.54845484 16.6171545,7.16408925 17.1553061,7.00076667 C17.3774727,7.52090645 17.3872455,8.13025054 17.1305485,8.68318602 C16.874503,9.23612151 16.4047606,9.6204871 15.8666091,9.78380968 C15.6444424,9.26366989 15.6353212,8.65432581 15.8913667,8.10139032" id="Fill-133" fill="#939598"></path>
                            <path d="M23.4604091,36.1008495 C23.1125,36.6006559 23.0167273,37.202129 23.1457273,37.7530968 C23.7040758,37.6868495 24.2331061,37.3903763 24.5803636,36.8905699 C24.9282727,36.3907634 25.0240455,35.7886344 24.8950455,35.2383226 C24.336697,35.3045699 23.8083182,35.601043 23.4604091,36.1008495" id="Fill-135" fill="#939598"></path>
                            <path d="M24.7883273,38.076528 C24.2918727,37.7262699 23.6944333,37.6298505 23.1471606,37.7597215 C23.2129636,38.3218398 23.5074485,38.8544419 24.003903,39.2040441 C24.5003576,39.5543022 25.0984485,39.6507215 25.6450697,39.5208505 C25.5792667,38.9587323 25.2847818,38.426786 24.7883273,38.076528" id="Fill-137" fill="#939598"></path>
                            <path d="M18.9785061,5.01774194 C19.4749606,5.368 19.7694455,5.89994624 19.8352485,6.46206452 C19.2886273,6.59193548 18.6905364,6.49551613 18.1940818,6.14525806 C17.6976273,5.79565591 17.4031424,5.26305376 17.3373394,4.70093548 C17.8846121,4.57106452 18.4820515,4.66748387 18.9785061,5.01774194" id="Fill-139" fill="#939598"></path>
                            <path d="M18.4017848,7.33147849 C18.7496939,6.83167204 19.2780727,6.53519892 19.8364212,6.46895161 C19.9654212,7.01926344 19.8696485,7.62139247 19.5217394,8.12119892 C19.1744818,8.62100538 18.6454515,8.91747849 18.087103,8.98372581 C17.958103,8.43275806 18.0538758,7.83128495 18.4017848,7.33147849" id="Fill-141" fill="#939598"></path>
                            <path d="M21.0077152,36.2394441 C20.5790182,36.6710355 20.3809576,37.246928 20.4128818,37.8116699 C20.9738364,37.8438097 21.5458667,37.6444118 21.9745636,37.2128204 C22.4032606,36.781229 22.6013212,36.2053366 22.569397,35.6405946 C22.0084424,35.6084548 21.4364121,35.8078527 21.0077152,36.2394441" id="Fill-143" fill="#939598"></path>
                            <path d="M21.9747591,38.4172097 C21.5460621,37.9856183 20.9740318,37.7862204 20.4130773,37.8183602 C20.381153,38.3831022 20.5792136,38.9589946 21.0079106,39.390586 C21.4366076,39.8221774 22.0086379,40.0215753 22.5695924,39.9894355 C22.6015167,39.4246935 22.4034561,38.8488011 21.9747591,38.4172097" id="Fill-145" fill="#939598"></path>
                            <path d="M21.9747591,4.83126559 C22.4034561,5.26285699 22.6015167,5.83874946 22.5695924,6.4034914 C22.0086379,6.43563118 21.4366076,6.23623333 21.0079106,5.80464194 C20.5792136,5.37305054 20.381153,4.79781398 20.4130773,4.23241613 C20.9740318,4.20027634 21.5460621,4.39967419 21.9747591,4.83126559" id="Fill-147" fill="#939598"></path>
                            <path d="M21.0077152,7.00903118 C21.4364121,6.57743978 22.0084424,6.37804194 22.569397,6.41018172 C22.6013212,6.97492366 22.4032606,7.55081613 21.9745636,7.98240753 C21.5458667,8.41399892 20.9738364,8.61339677 20.4128818,8.58125699 C20.3809576,8.01651505 20.5790182,7.44062258 21.0077152,7.00903118" id="Fill-149" fill="#939598"></path>
                            <path d="M27.1920273,30.6908054 L15.7664061,30.6908054 C15.7820424,29.2950204 16.1169212,28.0756763 16.7703909,27.0327731 C17.4238606,25.9905258 18.3157848,25.0833968 19.4474667,24.3133538 C19.9888758,23.9132462 20.5550424,23.5236333 21.1446636,23.1471387 C21.7342848,22.7699882 22.2756939,22.3646333 22.7701939,21.9317301 C23.2640424,21.498171 23.6699364,21.0291925 23.9891788,20.5234828 C24.3077697,20.018429 24.4752091,19.4372892 24.4908455,18.7794075 C24.4908455,18.4744075 24.4550121,18.1497301 24.3833455,17.8040634 C24.3116788,17.4597086 24.1722545,17.1389667 23.9650727,16.8418376 C23.7578909,16.5453645 23.4712242,16.2967731 23.1044212,16.0960634 C22.7376182,15.8960097 22.2600576,15.7956548 21.6704364,15.7956548 C21.1283758,15.7956548 20.6788303,15.9038806 20.3198455,16.1203323 C19.9615121,16.336128 19.6748455,16.6339129 19.4591939,17.0104075 C19.2448455,17.3875581 19.0845727,17.8322677 18.9816333,18.3458484 C18.8780424,18.8600849 18.818103,19.4130204 18.8018152,20.0059667 L16.0771788,20.0059667 C16.0771788,19.0758806 16.2003152,18.2133538 16.4478909,17.4196978 C16.6948152,16.625386 17.0655273,15.9399559 17.5593758,15.3620957 C18.0532242,14.7842355 18.6545727,14.3316548 19.3640727,14.002386 C20.0729212,13.6737731 20.8970879,13.5091387 21.8378758,13.5091387 C22.857497,13.5091387 23.7103303,13.6777086 24.3957242,14.0141925 C25.0804667,14.3513323 25.6342545,14.7763645 26.0564364,15.2899452 C26.4786182,15.8035258 26.7776636,16.3603968 26.9529212,16.9618699 C27.1281788,17.5639989 27.2161333,18.1379237 27.2161333,18.6829882 C27.2161333,19.3566118 27.1118909,19.9666118 26.9053606,20.5116763 C26.6975273,21.0573968 26.4193303,21.5585151 26.0688152,22.0156871 C25.7183,22.4728591 25.3195727,22.8939559 24.8732848,23.2789774 C24.426997,23.6639989 23.9650727,24.0254075 23.4868606,24.3618914 C23.0093,24.6990312 22.5310879,25.0197731 22.0528758,25.3247731 C21.5746636,25.6297731 21.1329364,25.9341172 20.7263909,26.2391172 C20.3198455,26.5434613 19.9654212,26.8609237 19.6631182,27.1895366 C19.3595121,27.5188054 19.1529818,27.8670957 19.0409212,28.2363753 L27.1920273,28.2363753 L27.1920273,30.6908054 Z" id="Fill-151" fill="#939598"></path>
                        </g>
                    </g>
                </g>
            </g>
        </g>
    </g>
</svg>